<svg width="98" height="97" xmlns="http://www.w3.org/2000/svg" xmlns:xlink="http://www.w3.org/1999/xlink" xml:space="preserve" overflow="hidden"><g transform="translate(-914 -420)"><g><g><g><g><path d="M995 455 995 434 988.3 440.7C981.6 434.7 972.7 431 963 431 942 431 925 448 925 469 925 490 942 507 963 507 973.5 507 983 502.7 989.9 495.9L981.4 487.4C976.7 492.1 970.2 495 963 495 948.7 495 937 483.3 937 469 937 454.7 948.7 443 963 443 969.4 443 975.3 445.3 979.8 449.2L974 455 995 455Z" fill="#000000" fill-rule="nonzero" fill-opacity="1"/></g></g></g></g></g></svg>